<?xml version="1.0" ?><!DOCTYPE svg  PUBLIC '-//W3C//DTD SVG 1.1//EN'  'http://www.w3.org/Graphics/SVG/1.1/DTD/svg11.dtd'><svg enable-background="new 0 0 64 64" height="64px" id="Layer_1" version="1.1" viewBox="0 0 64 64" width="64px" xml:space="preserve" xmlns="http://www.w3.org/2000/svg" xmlns:xlink="http://www.w3.org/1999/xlink"><g><path d="M30.896,28.851c-1.516,0.442-2.718,1.392-2.718,3.415c0,1.58,0.823,2.656,2.213,2.656c0.19,0,0.38-0.063,0.506-0.063   c0.822-0.193,1.582-0.763,2.024-1.646c0.758-1.266,0.695-2.402,0.694-3.856v-0.76C32.668,28.598,31.72,28.662,30.896,28.851z"/><path d="M32,7.174C18.311,7.174,7.174,18.311,7.174,32c0,13.689,11.137,24.826,24.826,24.826c13.689,0,24.826-11.137,24.826-24.826   C56.826,18.311,45.689,7.174,32,7.174z M33.616,25.691v-0.507c0-0.886,0.063-1.898-0.442-2.657   c-0.442-0.632-1.265-0.949-2.022-0.949h-0.255c-1.264,0.127-2.401,0.823-2.718,2.215c-0.064,0.314-0.251,0.632-0.633,0.693   l-3.54-0.441c-0.254-0.063-0.634-0.251-0.507-0.758c0.759-3.984,4.175-5.377,7.397-5.563h0.76c1.771,0,4.048,0.507,5.501,1.833   c1.77,1.643,1.58,3.855,1.58,6.259v5.69c0,1.708,0.697,2.467,1.391,3.354c0.191,0.314,0.255,0.694-0.062,0.947   c-0.696,0.631-2.024,1.77-2.784,2.403c-0.252,0.188-0.568,0.188-0.884,0.063c-1.201-1.011-1.392-1.454-2.086-2.404   c-1.202,1.267-2.214,1.962-3.416,2.342c-0.756,0.188-1.58,0.315-2.591,0.315c-3.036,0-5.439-1.896-5.439-5.628   c0-2.972,1.581-4.995,3.921-5.943c1.2-0.57,2.655-0.821,4.109-1.013C31.846,25.815,32.794,25.753,33.616,25.691L33.616,25.691z    M42.75,42.448c-0.369,0.295-0.761,0.562-1.152,0.794l-0.018,0.013c-2.987,1.878-6.839,3.027-10.243,3.104   c-0.107,0.003-0.213,0.005-0.317,0.005c-5.351-0.002-9.331-2.932-12.963-6.084c-0.175-0.14-0.303-0.354-0.302-0.59   c-0.001-0.18,0.077-0.357,0.207-0.481c0.13-0.121,0.308-0.185,0.482-0.185c0.137,0,0.273,0.037,0.409,0.107   c3.87,2.148,7.704,4.328,12.402,4.326c0.108,0,0.219,0,0.328-0.004c2.988-0.064,6.218-0.795,9.292-2.042v-0.004l0.284-0.112   l0.218-0.09c0.147-0.063,0.304-0.134,0.459-0.195c0.136-0.064,0.282-0.098,0.425-0.097c0.45,0,0.867,0.332,0.874,0.823   C43.137,42.012,42.979,42.277,42.75,42.448z M44.508,43.747c-0.149,0.116-0.321,0.196-0.524,0.198h-0.007   c-0.135,0-0.296-0.045-0.42-0.164c-0.128-0.118-0.188-0.296-0.185-0.443c0-0.102,0.021-0.193,0.054-0.278   c0.14-0.366,0.349-0.917,0.521-1.467c0.176-0.548,0.306-1.11,0.303-1.414c0.001-0.08-0.009-0.136-0.016-0.158   c-0.006-0.003-0.014-0.007-0.023-0.013c-0.034-0.016-0.093-0.037-0.172-0.053c-0.159-0.035-0.389-0.053-0.646-0.052   c-0.362,0-0.781,0.033-1.175,0.075c-0.459,0.066-0.852,0.104-1.121,0.161l-0.021,0.004l-0.026,0.002   c-0.026,0.005-0.057,0.006-0.089,0.006c-0.137,0-0.292-0.035-0.425-0.143c-0.135-0.108-0.215-0.291-0.21-0.449   c0.008-0.291,0.169-0.48,0.359-0.625c0.309-0.223,0.642-0.412,1.006-0.563v-0.014l0.311-0.101l0.01-0.005l0.552-0.185l0.001,0.037   c0.546-0.119,1.093-0.166,1.586-0.166c0.688,0.002,1.259,0.082,1.65,0.233c0.132,0.059,0.253,0.11,0.38,0.249l0.015,0.018   l0.013,0.018c0.124,0.19,0.188,0.416,0.199,0.717l0.006,0.18C46.393,40.482,45.906,42.489,44.508,43.747z"/></g></svg>