<svg id="Capa_1" enable-background="new 0 0 512 512" height="512" viewBox="0 0 512 512" width="512" xmlns="http://www.w3.org/2000/svg"><g><path d="m512 256c0 42.068-10.147 81.765-28.127 116.779-1.589 3.094-17.249-3.798-18.959-.779-28.77 50.813-65.608 90.952-120.511 112.532-5.538 2.177-5.963 13.979-11.682 15.773-10.497 3.293-21.285 5.929-32.316 7.858-3.165.553-8.629-10.79-11.832-10.354-11.397 1.551-107.468-4.216-142.837-22.667-2.142-1.118-12.243 5.712-14.349 4.536-78.382-43.762-131.387-127.53-131.387-223.678 0-141.385 114.615-256 256-256s256 114.615 256 256z" fill="#f29500"/><path d="m381.17 139.851h-296.17v-94.638c97.77 20.004 198.4 20.004 296.17 0z" fill="#93dcfc"/><path d="m186.915 58.769v81.082h-101.915v-94.638c33.71 6.897 67.76 11.415 101.915 13.556z" fill="#72d1fb"/><path d="m372.414 36.482c.939-.944 2.209-1.482 3.54-1.482h66.046c2.761 0 5 2.239 5 5v129.05c0 1.838-1.008 3.528-2.626 4.4l-48.78 26.32c-13.033 7.032-21.157 20.647-21.157 35.456v176.51c0 2.761-2.239 5-5 5h-276.875c-2.761 0-5-2.239-5-5v-176.51c0-14.809-8.124-28.424-21.157-35.456l-48.78-26.32c-1.617-.873-2.626-2.562-2.626-4.4v-129.05c0-2.761 2.239-5 5-5h66.046c1.331 0 2.602.538 3.54 1.482 37.893 38.104 87.333 61.162 141.415 61.162s103.522-23.058 141.414-61.162z" fill="#b4e7fd"/><path d="m447 40v129.05c0 1.838-1.008 3.528-2.626 4.4l-48.78 26.32c-13.033 7.032-21.157 20.647-21.157 35.456v91.909c-1.642.031-3.288.047-4.937.047-141.385 0-256-114.615-256-256 0-4.548.119-9.068.353-13.557 33.746 25.32 73.967 40.019 117.147 40.019 54.082 0 103.522-23.058 141.414-61.162.939-.944 2.209-1.482 3.54-1.482h66.046c2.761 0 5 2.239 5 5z" fill="#d5f1fe"/><path d="m401.882 196.378-6.287 3.392c-13.033 7.032-21.157 20.647-21.157 35.456v-126.65c0-3.371 2.732-6.103 6.103-6.103 2.97 0 5.509 2.139 6.014 5.065z" fill="#b4e7fd"/><path d="m87.562 108.577v126.65c0-14.809-8.124-28.424-21.157-35.456l-6.287-3.392 15.327-88.839c.505-2.927 3.044-5.065 6.014-5.065 3.371-.001 6.103 2.731 6.103 6.102z" fill="#93dcfc"/><path d="m231 201.3c-.765-1.25-1.48-2.537-2.143-3.855-.271 1.72-.602 3.447-.993 5.175-6.617-4.016-11.714-10.829-14.369-20.235s-2.51-20.138-.071-30.925c4.29 2.604 7.942 6.384 10.703 11.284 1.241-6.411 3.606-12.402 6.874-17.744 4.983 8.145 7.867 17.799 7.867 28.15s-2.885 20.005-7.868 28.15z" fill="#127d4f"/><path d="m248.107 182.386c-2.655 9.406-7.752 16.219-14.369 20.235-2.439-10.787-2.584-21.52.071-30.925 2.655-9.406 7.752-16.219 14.369-20.235 2.44 10.786 2.584 21.519-.071 30.925z" fill="#169b62"/><path d="m199.321 168.725c7.001-1.511 13.467.609 18.524 6.885s8.026 15.863 8.984 27.25c-7.001 1.511-13.467-.609-18.524-6.885-5.058-6.276-8.026-15.862-8.984-27.25z" fill="#106e46"/><path d="m253.695 195.975c-5.057 6.276-11.523 8.396-18.524 6.885.958-11.388 3.927-20.974 8.984-27.25s11.523-8.396 18.524-6.885c-.958 11.388-3.926 20.974-8.984 27.25z" fill="#127d4f"/><path d="m258.511 192.02c-.799 5.833-3.206 10.78-7.283 14.129h-40.455c-4.077-3.349-6.484-8.296-7.283-14.129 3.8-.504 7.418-.251 10.67.827-.232-3.243.324-6.636 1.576-10.039 3.726 1.389 6.897 3.406 9.295 6.02 1.078-3.421 3.132-6.617 5.97-9.467 2.762 2.774 4.781 5.875 5.881 9.193 2.366-2.481 5.443-4.406 9.038-5.746 1.268 3.446 1.822 6.881 1.567 10.161 3.341-1.18 7.085-1.471 11.024-.949z" fill="#1ab975"/><path d="m285.084 249.492v49.755c0 1.471-.073 2.928-.216 4.367-5.509 55.363-102.227 55.363-107.735 0-.143-1.44-.216-2.896-.216-4.367v-49.755c0-1.471.073-2.928.216-4.367 5.509-55.363 102.227-55.363 107.735 0 .143 1.439.216 2.896.216 4.367z" fill="#ffcd71"/><path d="m285.084 249.492v49.755c0 1.471-.073 2.927-.216 4.367-2.26 22.717-19.877 36.112-40.248 40.187-16.522-20.879-26.541-48.266-26.541-78.253 0-22.682 5.732-43.876 15.675-61.892 24.61.958 48.459 14.781 51.115 41.469.142 1.439.215 2.896.215 4.367z" fill="#fff36c"/><path d="m222.663 215.861h16.673c0 4.604-3.732 8.337-8.337 8.337s-8.336-3.732-8.336-8.337zm8.337 33.347c4.604 0 8.337-3.732 8.337-8.337h-16.673c-.001 4.605 3.732 8.337 8.336 8.337zm-33.347 0c4.604 0 8.337-3.732 8.337-8.337h-16.673c0 4.605 3.732 8.337 8.336 8.337zm66.694 0c4.604 0 8.337-3.732 8.337-8.337h-16.674c0 4.605 3.732 8.337 8.337 8.337zm-33.347 25.01c4.604 0 8.337-3.732 8.337-8.336h-16.673c-.001 4.603 3.732 8.336 8.336 8.336zm-33.347 0c4.604 0 8.337-3.732 8.337-8.336h-16.673c0 4.603 3.732 8.336 8.336 8.336zm66.694 0c4.604 0 8.337-3.732 8.337-8.336h-16.674c0 4.603 3.732 8.336 8.337 8.336zm-56.273-38.962c4.604 0 8.337-3.733 8.337-8.337h-16.673c0 4.605 3.732 8.337 8.336 8.337zm54.188-8.337h-16.673c0 4.604 3.732 8.337 8.337 8.337 4.604 0 8.336-3.732 8.336-8.337zm-54.605 26.457c0 4.604 3.732 8.337 8.337 8.337 4.604 0 8.337-3.732 8.337-8.337zm37.515 8.337c4.604 0 8.337-3.732 8.337-8.337h-16.673c0 4.604 3.732 8.337 8.336 8.337z" fill="#ffb52d"/><path d="m300.407 508.162c-14.423 2.523-29.261 3.838-44.407 3.838-45.237 0-87.733-11.733-124.612-32.323l40.612-177.677h297.574l14.299 70.779c-31.024 60.417-85.371 106.888-151.151 127.525l-10.026-27.447c-1.6-4.379-7.793-4.379-9.393 0z" fill="#5f55af"/><path d="m263.977 511.877c-2.649.081-5.308.123-7.977.123-45.237 0-87.733-11.733-124.612-32.323l40.612-177.677h24.773c-1.52 11.283-2.305 22.8-2.305 34.5 0 67.865 26.408 129.563 69.509 175.377z" fill="#51489a"/><path d="m268.347 492.337c1.038 2.456-3.251 11.198-11.165 19.66-.394.002-.788.003-1.182.003-28.266 0-55.463-4.581-80.887-13.042 6.06-5.481 17.267-15.025 25.972-31.672 13.859-26.503 9.514-48.326 13.919-47.539 5.194.928 19.656 32.762 7.913 56.706-.358.729-.736 1.443-1.133 2.142 20.006-16.644 25.263-34.883 28.59-32.411 4.236 3.146 2.985 38.089-18.202 54.285-3.467 2.651-7.268 4.645-11.216 6.105 29.741-2.839 45.65-18.357 47.391-14.237zm-68.763-73.041c-1.377-4.255-18.573 9.824-48.448 10.072 4.06-1.112 8.019-2.769 11.703-5.109 22.513-14.297 26.791-48.999 22.844-52.501-3.347-2.97-11.029 17.913-36.683 33.287-.214.128-.427.255-.641.38l-10.335 45.216c4.823 1.592 9.949 2.483 15.236 2.305 26.655-.897 47.948-28.63 46.324-33.65zm-12.994-103.989c2.878 4.656 17.285 15.58 26.605 37.792 11.573 27.578 5.4 48.957 9.856 48.544 5.254-.486 22.351-30.986 12.672-55.836-1.584-4.067-3.794-7.746-6.408-11.046 23.93 17.887 29.454 39.415 33.082 36.8 4.281-3.084 3.539-38.042-17.41-54.544-20.884-16.451-54.468-8.747-58.656-3.741-.029.032-.055.065-.079.099-.129.168-.257 1.5.338 1.932zm276.971 69.242c-19.519-18.173-54.177-13.548-56.568-8.845-2.028 3.987 20.092 6.146 41.436 27.052-3.662-2.077-7.636-3.697-11.898-4.639-26.04-5.757-53.559 15.813-53.234 21.08.276 4.467 20.455-4.909 49.481 2.3 5.314 1.32 10.092 2.989 14.363 4.805 8.875-9.954 16.984-20.606 24.235-31.863-2.087-3.594-4.664-6.955-7.815-9.89zm-94.917 62.411c-3.982-2.036-6.187 20.08-27.136 41.38 2.085-3.657 3.712-7.628 4.663-11.888 5.81-26.028-15.704-53.592-20.97-53.277-4.467.267 4.867 20.465-2.401 49.477-.024.096-.049.192-.073.287l9.996 27.365c12.862-4.035 25.286-9.058 37.185-14.979 5.516-17.678 2.164-36.612-1.264-38.365zm-44.074-56.52c3.987 2.028 6.146-20.092 27.051-41.436-2.077 3.662-3.697 7.636-4.639 11.898-5.757 26.04 15.813 53.559 21.08 53.234 4.467-.276-4.909-20.455 2.3-49.481 5.806-23.378 18.368-36.381 20.499-41.423.522-.517.673-1.006.394-1.513-.083-.151-.203-.301-.358-.449-.028-.029-.059-.057-.091-.084-4.904-4.305-39.274-6.773-57.391 12.686-18.173 19.518-13.548 54.177-8.845 56.568z" fill="#453d83"/><path d="m474.305 325h-307.562v-40h307.562z" fill="#958fca"/><path d="m480.677 285.5c0 4.142-3.358 7.5-7.5 7.5h-278.451v32h-27.983v-32.038c-3.787-.38-6.743-3.576-6.743-7.462 0-4.142 3.358-7.5 7.5-7.5h305.677c4.143 0 7.5 3.358 7.5 7.5z" fill="#8078bf"/><path d="m335.086 372h-.172c-2.714 0-4.914-2.2-4.914-4.914v-61.172c0-2.714 2.2-4.914 4.914-4.914h.172c2.714 0 4.914 2.2 4.914 4.914v61.172c0 2.714-2.2 4.914-4.914 4.914zm-33.179 30.643 17.549-95.318c.491-2.669-1.274-5.231-3.943-5.723l-.169-.031c-2.669-.491-5.231 1.274-5.723 3.943l-17.549 95.318c-.491 2.669 1.274 5.231 3.943 5.723l.169.031c2.669.492 5.231-1.274 5.723-3.943z" fill="#fff"/><path d="m194.628 293h-27.128c-4.142 0-7.5-3.358-7.5-7.5s3.358-7.5 7.5-7.5h27.128c-4.142 0-7.5 3.358-7.5 7.5s3.358 7.5 7.5 7.5zm156.372 13c0 4.418-3.582 8-8 8h-35c-4.418 0-8-3.582-8-8s3.582-8 8-8h35c4.418 0 8 3.582 8 8z" fill="#6a61b4"/></g></svg>