<svg height="480pt" viewBox="0 0 480 480" width="480pt" xmlns="http://www.w3.org/2000/svg"><path d="m264 8h208v448h-208zm0 0" fill="#e3584b"/><path d="m264 152h208v16h-208zm0 0" fill="#cc4f43"/><path d="m296 56h16v80h-16zm0 0" fill="#d6d9db"/><path d="m296 184h16v112h-16zm0 0" fill="#d6d9db"/><path d="m272 456h16v24h-16zm0 0" fill="#0a4a7a"/><path d="m448 456h16v24h-16zm0 0" fill="#0a4a7a"/><path d="m8 176h224v280h-224zm0 0" fill="#4398d1"/><g fill="#2d81ba"><path d="m8 232h224v16h-224zm0 0"/><path d="m32 200h16v16h-16zm0 0"/><path d="m64 200h16v16h-16zm0 0"/><path d="m96 200h16v16h-16zm0 0"/><path d="m160 200h48v16h-48zm0 0"/></g><path d="m8 8h224v136h-224zm0 0" fill="#ffa217"/><path d="m40 40h96v72h-96zm0 0" fill="#87ced9"/><path d="m16 456h16v24h-16zm0 0" fill="#0a4a7a"/><path d="m208 456h16v24h-16zm0 0" fill="#0a4a7a"/><path d="m216 352c0 48.601562-39.398438 88-88 88s-88-39.398438-88-88 39.398438-88 88-88 88 39.398438 88 88zm0 0" fill="#3e8dc2"/><path d="m200 344c0 44.183594-35.816406 80-80 80s-80-35.816406-80-80 35.816406-80 80-80 80 35.816406 80 80zm0 0" fill="#d6d9db"/><path d="m176 344c0 30.929688-25.070312 56-56 56s-56-25.070312-56-56 25.070312-56 56-56 56 25.070312 56 56zm0 0" fill="#71c4d1"/><path d="m160 344c0 22.089844-17.910156 40-40 40s-40-17.910156-40-40 17.910156-40 40-40 40 17.910156 40 40zm0 0" fill="#87ced9"/><path d="m176.566406 287.433594-32.566406 32.566406v48l32.566406 32.566406c31.242188-31.238281 31.242188-81.894531 0-113.132812zm0 0" fill="#d6d9db"/><path d="m40 40h96v16h-96zm0 0" fill="#71c4d1"/><path d="m192 32h16v16h-16zm0 0" fill="#eb8b23"/><path d="m192 64h16v16h-16zm0 0" fill="#eb8b23"/><path d="m200 100c-6.628906 0-12 5.371094-12 12s5.371094 12 12 12 12-5.371094 12-12-5.371094-12-12-12zm0 0" fill="#eb8b23"/><path d="m160 8h16v136h-16zm0 0" fill="#eb8b23"/><path d="m312 56v80h-16v16h32v-96zm0 0" fill="#cf4e42"/><path d="m312 184v112h-16v16h32v-128zm0 0" fill="#cf4e42"/><path d="m472 0h-208c-4.417969 0-8 3.582031-8 8v448c0 4.417969 3.582031 8 8 8h8v16h16v-16h160v16h16v-16h8c4.417969 0 8-3.582031 8-8v-448c0-4.417969-3.582031-8-8-8zm-8 448h-192v-280h192zm0-296h-192v-136h192zm0 0"/><path d="m296 56h16v80h-16zm0 0"/><path d="m296 184h16v112h-16zm0 0"/><path d="m8 464h8v16h16v-16h176v16h16v-16h8c4.417969 0 8-3.582031 8-8v-280c0-4.417969-3.582031-8-8-8h-224c-4.417969 0-8 3.582031-8 8v280c0 4.417969 3.582031 8 8 8zm8-280h208v48h-208zm0 64h208v200h-208zm0 0"/><path d="m120 256c-48.601562 0-88 39.398438-88 88s39.398438 88 88 88 88-39.398438 88-88c-.058594-48.578125-39.421875-87.941406-88-88zm0 160c-31.621094.050781-59.578125-20.535156-68.910156-50.75-9.332032-30.210938 2.140625-62.980469 28.28125-80.773438 26.140625-17.789062 60.832031-16.441406 85.515625 3.324219l-11.367188 11.398438c-23.101562-17.523438-55.75-14.5625-75.324219 6.835937-19.570312 21.394532-19.621093 54.175782-.113281 75.628906 19.507813 21.457032 52.144531 24.515626 75.300781 7.0625l11.503907 11.503907c-12.726563 10.222656-28.5625 15.785156-44.886719 15.769531zm18.34375-42.34375 3.625 3.625c-16.703125 11.097656-39.042969 8.117188-52.246094-6.976562-13.207031-15.09375-13.191406-37.632813.03125-52.710938s35.566406-18.035156 52.253906-6.914062l-3.664062 3.664062c-1.5 1.5-2.34375 3.535156-2.34375 5.65625v48c0 2.121094.84375 4.15625 2.34375 5.65625zm37.855469 15.199219-24.199219-24.167969v-41.375l24.199219-24.199219c21.066406 26.214844 21.066406 63.558594 0 89.773438zm0 0"/><path d="m32 200h16v16h-16zm0 0"/><path d="m64 200h16v16h-16zm0 0"/><path d="m96 200h16v16h-16zm0 0"/><path d="m160 200h48v16h-48zm0 0"/><path d="m8 152h224c4.417969 0 8-3.582031 8-8v-136c0-4.417969-3.582031-8-8-8h-224c-4.417969 0-8 3.582031-8 8v136c0 4.417969 3.582031 8 8 8zm168-136h48v120h-48zm-160 0h144v120h-144zm0 0"/><path d="m192 32h16v16h-16zm0 0"/><path d="m192 64h16v16h-16zm0 0"/><path d="m136 32h-96c-4.417969 0-8 3.582031-8 8v72c0 4.417969 3.582031 8 8 8h96c4.417969 0 8-3.582031 8-8v-72c0-4.417969-3.582031-8-8-8zm-8 72h-80v-56h80zm0 0"/><path d="m200 100c-6.628906 0-12 5.371094-12 12s5.371094 12 12 12 12-5.371094 12-12-5.371094-12-12-12zm0 16c-2.210938 0-4-1.789062-4-4s1.789062-4 4-4 4 1.789062 4 4-1.789062 4-4 4zm0 0"/></svg>