<svg height="512" viewBox="0 0 64 64" width="512" xmlns="http://www.w3.org/2000/svg"><g id="avatar-woman-girl-person-user"><path d="m55 52.17v8.83h-46v-8.83a8 8 0 0 1 5.96-7.74l9.04-2.38a8 8 0 0 0 16 0l9.04 2.38a8 8 0 0 1 5.96 7.74z" fill="#f7afd1"/><path d="m55 52.17v8.83h-4v-8.83a8 8 0 0 0 -5.96-7.74l-5.12-1.35a6.93 6.93 0 0 0 .08-1.03l9.04 2.38a8 8 0 0 1 5.96 7.74z" fill="#f072ae"/><path d="m54 34v8h-2a8 8 0 0 1 -8-8v-8h2a8 8 0 0 1 8 8z" fill="#ffd422"/><path d="m54 34v8h-2a8.239 8.239 0 0 1 -2-.25v-7.75a8.006 8.006 0 0 0 -6-7.75v-.25h2a8 8 0 0 1 8 8z" fill="#ebbf00"/><path d="m47 19.36a4 4 0 0 1 -3 6.64h-.04c.03-.33.04-.66.04-1v-7a4.025 4.025 0 0 1 2.83 1.17 1.537 1.537 0 0 1 .17.19z" fill="#ffc477"/><path d="m47 18v1.36a1.537 1.537 0 0 0 -.17-.19 4.025 4.025 0 0 0 -2.83-1.17l-7-5-17 5a4.025 4.025 0 0 0 -2.83 1.17 1.537 1.537 0 0 0 -.17.19v-1.36a15 15 0 0 1 30 0z" fill="#ffd422"/><g fill="#ffc477"><path d="m36 41 4 1.05a8 8 0 0 1 -16 0l4-1.05v-4.69a11.939 11.939 0 0 0 8 0z"/><path d="m20.04 26h-.04a4 4 0 0 1 -3-6.64 1.537 1.537 0 0 1 .17-.19 4.025 4.025 0 0 1 2.83-1.17v7c0 .34.01.67.04 1z"/><path d="m44 18v7c0 .34-.01.67-.04 1a11.4 11.4 0 0 1 -.33 1.94 11.966 11.966 0 0 1 -7.63 8.37 11.939 11.939 0 0 1 -8 0 11.966 11.966 0 0 1 -7.63-8.37 11.4 11.4 0 0 1 -.33-1.94c-.03-.33-.04-.66-.04-1v-7l17-5z"/></g><path d="m44 18v7c0 .34-.01.67-.04 1a11.4 11.4 0 0 1 -.33 1.94 11.966 11.966 0 0 1 -7.63 8.37 11.8 11.8 0 0 1 -4 .69 12 12 0 0 1 -2-.17 11.082 11.082 0 0 0 2-.52 11.966 11.966 0 0 0 7.63-8.37 11.4 11.4 0 0 0 .33-1.94c.03-.33.04-.66.04-1v-7l-5.83-4.17 2.83-.83z" fill="#ffa733"/><path d="m47 18v1.36a1.537 1.537 0 0 0 -.17-.19 4.025 4.025 0 0 0 -2.83-1.17l-1.02-.73a15.013 15.013 0 0 0 -2.83-8.06 15.745 15.745 0 0 0 -1.55-1.81 14.851 14.851 0 0 0 -8.61-4.26 14.9 14.9 0 0 1 12.61 4.26 15.745 15.745 0 0 1 1.55 1.81 14.581 14.581 0 0 1 1.44 2.45 14.759 14.759 0 0 1 1.41 6.34z" fill="#ebbf00"/><path d="m26 21a3 3 0 0 0 -3 3h2a1 1 0 0 1 2 0h2a3 3 0 0 0 -3-3z"/><path d="m38 23a1 1 0 0 1 1 1h2a3 3 0 0 0 -6 0h2a1 1 0 0 1 1-1z"/><path d="m49.29 43.46-12.29-3.23v-3.23a13.043 13.043 0 0 0 6-5.1v2.1a9.014 9.014 0 0 0 9 9h2a1 1 0 0 0 1-1v-8a9.009 9.009 0 0 0 -7.18-8.81 4.934 4.934 0 0 0 1.18-3.19 4.987 4.987 0 0 0 -1-2.97v-1.03a16 16 0 0 0 -32 0v1.03a4.959 4.959 0 0 0 3.16 7.88 13.017 13.017 0 0 0 7.84 10.09v3.23l-12.3 3.23a9.03 9.03 0 0 0 -6.7 8.71v8.83a1 1 0 0 0 1 1h46a1 1 0 0 0 1-1v-8.83a9.028 9.028 0 0 0 -6.71-8.71zm3.71-9.46v7h-1a7.008 7.008 0 0 1 -7-7v-7h1a7.008 7.008 0 0 1 7 7zm-6-12a2.994 2.994 0 0 1 -2 2.81v-5.63a3.179 3.179 0 0 1 1.12.69 3.013 3.013 0 0 1 .88 2.13zm-28 2.82a3 3 0 0 1 -1.13-4.94 3.1 3.1 0 0 1 1.13-.7zm-.97-7.41a14.007 14.007 0 0 1 13.97-13.41 14 14 0 0 1 13.97 13.41 4.794 4.794 0 0 0 -1.6-.37l-6.79-4.85a.982.982 0 0 0 -.86-.15l-16.94 4.98a4.956 4.956 0 0 0 -1.75.39zm2.97 7.59v-6.25l15.81-4.65 6.19 4.41v6.49a11 11 0 0 1 -22 0zm7.25 16.97a1.014 1.014 0 0 0 .75-.97v-3.36a12.68 12.68 0 0 0 6 0v3.36a1.014 1.014 0 0 0 .75.97l3.2.84a7 7 0 0 1 -13.9 0zm25.75 18.03h-7.54a5.99 5.99 0 0 0 -4.46-10v2a4 4 0 0 1 0 8h-20a4 4 0 0 1 0-8v-2a5.99 5.99 0 0 0 -4.46 10h-7.54v-7.83a7.019 7.019 0 0 1 5.21-6.77l7.9-2.08a8.985 8.985 0 0 0 17.78 0l7.89 2.08a7.017 7.017 0 0 1 5.22 6.77z"/><path d="m35 30h-2a1 1 0 0 1 -2 0h-2a3 3 0 0 0 6 0z"/></g></svg>